<?xml version="1.0" encoding="utf-8"?>
<!-- Generator: Adobe Illustrator 19.2.1, SVG Export Plug-In . SVG Version: 6.00 Build 0)  -->
<!DOCTYPE svg PUBLIC "-//W3C//DTD SVG 1.1//EN" "http://www.w3.org/Graphics/SVG/1.1/DTD/svg11.dtd">
<svg version="1.1" id="Layer_1" xmlns="http://www.w3.org/2000/svg" xmlns:xlink="http://www.w3.org/1999/xlink" x="0px" y="0px"
	 viewBox="0 0 595.28 841.89" enable-background="new 0 0 595.28 841.89" xml:space="preserve">
<g>
	<g>
		<g>
			
				<rect x="32.42" y="51.18" transform="matrix(0.8837 -0.4681 0.4681 0.8837 -17.457 42.5825)" fill="#010101" width="89.05" height="10.48"/>
			<path fill="#FFFFFF" d="M39.92,82.33l-5.21-9.84l79.28-42l5.21,9.84L39.92,82.33z M35.6,72.77l4.6,8.68l78.11-41.38l-4.6-8.68
				L35.6,72.77z"/>
		</g>
		<g>
			<g>
				
					<rect x="39.47" y="71.35" transform="matrix(0.8798 -0.4753 0.4753 0.8798 -30.136 27.6459)" fill="#010101" width="0.27" height="4.13"/>
				
					<rect x="39.14" y="71.02" transform="matrix(0.8794 -0.4762 0.4762 0.8794 -30.1799 27.7126)" fill="#FFFFFF" width="0.92" height="4.79"/>
			</g>
			<g>
				
					<rect x="42.45" y="69.64" transform="matrix(0.8797 -0.4756 0.4756 0.8797 -28.6149 28.7887)" fill="#010101" width="0.26" height="2.59"/>
				<polygon fill="#FFFFFF" points="43.02,72.37 41.62,69.8 42.14,69.52 43.55,72.08 				"/>
			</g>
			<g>
				<polygon fill="#010101" points="46.67,70.22 46.43,70.35 45.19,68.07 45.43,67.95 				"/>
				<polygon fill="#FFFFFF" points="46.37,70.57 44.97,68.01 45.49,67.72 46.89,70.29 				"/>
			</g>
			<g>
				<polygon fill="#010101" points="50.01,68.43 49.78,68.56 48.54,66.28 48.77,66.15 				"/>
				<polygon fill="#FFFFFF" points="49.72,68.78 48.31,66.21 48.84,65.93 50.24,68.5 				"/>
			</g>
			<g>
				<polygon fill="#010101" points="53.36,66.64 53.13,66.76 51.88,64.49 52.12,64.36 				"/>
				<polygon fill="#FFFFFF" points="53.06,66.99 51.66,64.42 52.18,64.14 53.58,66.7 				"/>
			</g>
			<g>
				
					<rect x="56.2" y="62.38" transform="matrix(0.8761 -0.4822 0.4822 0.8761 -24.0956 35.15)" fill="#010101" width="0.26" height="4.13"/>
				
					<rect x="55.87" y="62.05" transform="matrix(0.8796 -0.4758 0.4758 0.8796 -23.8783 34.5611)" fill="#FFFFFF" width="0.92" height="4.79"/>
			</g>
			<g>
				
					<rect x="59.18" y="60.68" transform="matrix(0.8779 -0.4789 0.4789 0.8779 -22.4358 35.9751)" fill="#010101" width="0.26" height="2.59"/>
				<polygon fill="#FFFFFF" points="59.75,63.4 58.35,60.83 58.87,60.55 60.28,63.11 				"/>
			</g>
			<g>
				<polygon fill="#010101" points="63.4,61.26 63.16,61.38 61.92,59.11 62.15,58.98 				"/>
				<polygon fill="#FFFFFF" points="63.1,61.61 61.7,59.04 62.22,58.75 63.62,61.32 				"/>
			</g>
			<g>
				<polygon fill="#010101" points="66.74,59.46 66.51,59.59 65.27,57.31 65.5,57.19 				"/>
				<polygon fill="#FFFFFF" points="66.44,59.81 65.04,57.24 65.57,56.96 66.97,59.53 				"/>
			</g>
			<g>
				<polygon fill="#010101" points="70.09,57.67 69.86,57.79 68.61,55.52 68.85,55.39 				"/>
				
					<rect x="69.05" y="55.13" transform="matrix(0.8779 -0.4788 0.4788 0.8779 -18.6316 40.1179)" fill="#FFFFFF" width="0.59" height="2.93"/>
			</g>
			<g>
				
					<rect x="72.92" y="53.41" transform="matrix(0.8796 -0.4757 0.4757 0.8796 -17.5955 41.4299)" fill="#010101" width="0.27" height="4.13"/>
				
					<rect x="72.59" y="53.08" transform="matrix(0.8798 -0.4753 0.4753 0.8798 -17.5898 41.3941)" fill="#FFFFFF" width="0.93" height="4.79"/>
			</g>
			<g>
				
					<rect x="75.91" y="51.71" transform="matrix(0.877 -0.4804 0.4804 0.877 -16.1147 43.0483)" fill="#010101" width="0.27" height="2.59"/>
				<polygon fill="#FFFFFF" points="76.48,54.43 75.08,51.86 75.6,51.58 77,54.15 				"/>
			</g>
			<g>
				<polygon fill="#010101" points="80.13,52.29 79.89,52.41 78.65,50.14 78.88,50.01 				"/>
				<polygon fill="#FFFFFF" points="79.83,52.64 78.42,50.07 78.95,49.79 80.35,52.35 				"/>
			</g>
			<g>
				
					<rect x="82.6" y="48.12" transform="matrix(0.879 -0.4768 0.4768 0.879 -13.5533 45.427)" fill="#010101" width="0.26" height="2.59"/>
				<polygon fill="#FFFFFF" points="83.17,50.84 81.77,48.28 82.29,47.99 83.7,50.56 				"/>
			</g>
			<g>
				<polygon fill="#010101" points="86.82,48.7 86.58,48.83 85.34,46.55 85.57,46.43 				"/>
				<polygon fill="#FFFFFF" points="86.52,49.05 85.12,46.48 85.64,46.2 87.04,48.77 				"/>
			</g>
			<g>
				<polygon fill="#010101" points="90.89,48.27 90.65,48.39 88.68,44.76 88.92,44.63 				"/>
				
					<rect x="89.32" y="44.11" transform="matrix(0.8795 -0.4759 0.4759 0.8795 -11.3156 48.3379)" fill="#FFFFFF" width="0.92" height="4.79"/>
			</g>
			<g>
				<polygon fill="#010101" points="93.51,45.11 93.27,45.24 92.03,42.96 92.27,42.84 				"/>
				<polygon fill="#FFFFFF" points="93.21,45.46 91.81,42.9 92.33,42.61 93.73,45.18 				"/>
			</g>
			<g>
				<polygon fill="#010101" points="96.85,43.32 96.62,43.45 95.38,41.17 95.61,41.04 				"/>
				<polygon fill="#FFFFFF" points="96.55,43.67 95.15,41.1 95.68,40.82 97.08,43.39 				"/>
			</g>
			<g>
				<polygon fill="#010101" points="100.2,41.53 99.96,41.65 98.72,39.38 98.96,39.25 				"/>
				<polygon fill="#FFFFFF" points="99.9,41.88 98.5,39.31 99.02,39.03 100.42,41.59 				"/>
			</g>
			<g>
				
					<rect x="102.68" y="37.36" transform="matrix(0.8782 -0.4782 0.4782 0.8782 -5.9687 53.8752)" fill="#010101" width="0.26" height="2.59"/>
				<polygon fill="#FFFFFF" points="103.25,40.08 101.84,37.52 102.37,37.23 103.77,39.8 				"/>
			</g>
			<g>
				<polygon fill="#010101" points="110.31,36.25 110.08,36.38 108.84,34.1 109.07,33.97 				"/>
				
					<rect x="109.28" y="33.71" transform="matrix(0.8778 -0.4791 0.4791 0.8778 -3.4583 56.7952)" fill="#FFFFFF" width="0.59" height="2.92"/>
			</g>
			<g>
				<polygon fill="#010101" points="107.61,39.3 107.38,39.43 105.42,35.79 105.65,35.66 				"/>
				
					<rect x="106.05" y="35.15" transform="matrix(0.8795 -0.4759 0.4759 0.8795 -5.0319 55.2168)" fill="#FFFFFF" width="0.92" height="4.79"/>
			</g>
		</g>
	</g>
	<g>
		<g>
			<path fill="#010101" d="M38.27,30.6c12.37,2.69,43.76,21.48,50.82,25.7c7.06,4.22,22.71,12.81,22.71,12.81s5.75,3.35,3.71,6.55
				c-2.04,3.2-5.09,2.69-6.55,1.75c-1.46-0.95,0.87-2.69-7.21-6.7c-8.08-4-7.35-6.33-10.34-7.72c-2.99-1.38-4,0.87-5.24,1.89
				c-1.24,1.02-2.7,1.46-2.7,1.46S43.72,45.24,38.27,31.04"/>
			<path fill="#FFFFFF" d="M111.46,78.46c-1.08,0-2.05-0.36-2.68-0.77c-0.53-0.34-0.66-0.79-0.8-1.25
				c-0.31-1.06-0.79-2.65-6.38-5.43c-5.04-2.49-6.71-4.37-7.93-5.74c-0.76-0.85-1.31-1.47-2.4-1.97c-2.16-1-3.15,0.06-4.11,1.08
				c-0.27,0.28-0.51,0.54-0.78,0.76c-1.28,1.05-2.75,1.5-2.81,1.52l-0.13,0.04l-0.12-0.06c-0.1-0.05-10.08-5.37-20.59-12.35
				c-14.15-9.4-22.49-17.18-24.78-23.14l0.47-0.18c-0.08-0.02-0.16-0.04-0.23-0.05l0.14-0.64c5.65,1.23,19.05,6.68,50.83,25.69
				l0.09,0.05c6.98,4.17,22.55,12.72,22.71,12.81c0.15,0.09,3.61,2.13,4.23,4.65c0.2,0.84,0.07,1.64-0.4,2.37
				c-0.86,1.36-2.02,2.23-3.34,2.51C112.12,78.43,111.78,78.46,111.46,78.46z M89.67,62.23c0.54,0,1.16,0.14,1.88,0.47
				c1.21,0.56,1.83,1.25,2.61,2.13c1.19,1.33,2.81,3.15,7.73,5.59c5.85,2.9,6.37,4.66,6.72,5.83c0.12,0.42,0.2,0.68,0.52,0.89
				c0.7,0.46,1.91,0.85,3.17,0.57c1.16-0.25,2.15-1,2.92-2.22c0.37-0.58,0.47-1.19,0.31-1.86c-0.54-2.24-3.88-4.21-3.91-4.23
				c-0.15-0.08-15.73-8.64-22.72-12.81l-0.09-0.05c-30.94-18.5-44.38-24.12-50.22-25.52c5.35,13.53,42.45,33.66,44.9,34.97
				c0.37-0.13,1.49-0.56,2.45-1.35c0.24-0.19,0.47-0.44,0.72-0.71C87.42,63.15,88.28,62.23,89.67,62.23z"/>
		</g>
		<g>
			<line fill="#010101" x1="91.08" y1="62.36" x2="93.11" y2="58.86"/>
			
				<rect x="90.07" y="60.28" transform="matrix(0.5018 -0.865 0.865 0.5018 -6.5419 109.8578)" fill="#FFFFFF" width="4.05" height="0.66"/>
		</g>
		<path fill="#010101" stroke="#FFFFFF" stroke-width="3" stroke-miterlimit="10" d="M83.39,64.83"/>
		<path fill="#010101" stroke="#FFFFFF" stroke-width="3" stroke-miterlimit="10" d="M89.32,56.74"/>
		<path fill="#010101" stroke="#FFFFFF" stroke-width="3" stroke-miterlimit="10" d="M89.09,56.3"/>
		<path fill="#010101" stroke="#FFFFFF" stroke-width="3" stroke-miterlimit="10" d="M82.85,65.01"/>
	</g>
</g>
<g>
	<rect x="36.16" y="126.95" fill="#FFFFFF" width="519.65" height="68.59"/>
	<g>
		<polyline fill="none" stroke="#010101" stroke-width="0.25" stroke-miterlimit="10" points="555.82,195.29 555.82,195.54 
			555.57,195.54 		"/>
		
			<line fill="none" stroke="#010101" stroke-width="0.25" stroke-miterlimit="10" stroke-dasharray="0.5016,3.0096" x1="552.56" y1="195.54" x2="37.92" y2="195.54"/>
		<polyline fill="none" stroke="#010101" stroke-width="0.25" stroke-miterlimit="10" points="36.41,195.54 36.16,195.54 
			36.16,195.29 		"/>
		
			<line fill="none" stroke="#010101" stroke-width="0.25" stroke-miterlimit="10" stroke-dasharray="0.4899,2.9392" x1="36.16" y1="192.35" x2="36.16" y2="128.67"/>
		<polyline fill="none" stroke="#010101" stroke-width="0.25" stroke-miterlimit="10" points="36.16,127.2 36.16,126.95 
			36.41,126.95 		"/>
		
			<line fill="none" stroke="#010101" stroke-width="0.25" stroke-miterlimit="10" stroke-dasharray="0.5016,3.0096" x1="39.42" y1="126.95" x2="554.06" y2="126.95"/>
		<polyline fill="none" stroke="#010101" stroke-width="0.25" stroke-miterlimit="10" points="555.57,126.95 555.82,126.95 
			555.82,127.2 		"/>
		
			<line fill="none" stroke="#010101" stroke-width="0.25" stroke-miterlimit="10" stroke-dasharray="0.4899,2.9392" x1="555.82" y1="130.14" x2="555.82" y2="193.82"/>
	</g>
</g>
<g>
	<line fill="#FFFFFF" x1="36.16" y1="338.68" x2="281.45" y2="338.68"/>
	<g>
		<line fill="none" stroke="#010101" stroke-width="0.25" stroke-miterlimit="10" x1="36.16" y1="338.68" x2="36.41" y2="338.68"/>
		
			<line fill="none" stroke="#010101" stroke-width="0.25" stroke-miterlimit="10" stroke-dasharray="0.5006,3.0035" x1="39.42" y1="338.68" x2="279.7" y2="338.68"/>
		<line fill="none" stroke="#010101" stroke-width="0.25" stroke-miterlimit="10" x1="281.2" y1="338.68" x2="281.45" y2="338.68"/>
	</g>
</g>
<g>
	<line fill="#FFFFFF" x1="36.16" y1="368.51" x2="281.45" y2="368.51"/>
	<g>
		<line fill="none" stroke="#010101" stroke-width="0.25" stroke-miterlimit="10" x1="36.16" y1="368.51" x2="36.41" y2="368.51"/>
		
			<line fill="none" stroke="#010101" stroke-width="0.25" stroke-miterlimit="10" stroke-dasharray="0.5006,3.0035" x1="39.42" y1="368.51" x2="279.7" y2="368.51"/>
		<line fill="none" stroke="#010101" stroke-width="0.25" stroke-miterlimit="10" x1="281.2" y1="368.51" x2="281.45" y2="368.51"/>
	</g>
</g>
<g>
	<line fill="#FFFFFF" x1="36.16" y1="398.33" x2="281.45" y2="398.33"/>
	<g>
		<line fill="none" stroke="#010101" stroke-width="0.25" stroke-miterlimit="10" x1="36.16" y1="398.33" x2="36.41" y2="398.33"/>
		
			<line fill="none" stroke="#010101" stroke-width="0.25" stroke-miterlimit="10" stroke-dasharray="0.5006,3.0035" x1="39.42" y1="398.33" x2="279.7" y2="398.33"/>
		<line fill="none" stroke="#010101" stroke-width="0.25" stroke-miterlimit="10" x1="281.2" y1="398.33" x2="281.45" y2="398.33"/>
	</g>
</g>
<g>
	<line fill="#FFFFFF" x1="36.16" y1="428.15" x2="281.45" y2="428.15"/>
	<g>
		<line fill="none" stroke="#010101" stroke-width="0.25" stroke-miterlimit="10" x1="36.16" y1="428.15" x2="36.41" y2="428.15"/>
		
			<line fill="none" stroke="#010101" stroke-width="0.25" stroke-miterlimit="10" stroke-dasharray="0.5006,3.0035" x1="39.42" y1="428.15" x2="279.7" y2="428.15"/>
		<line fill="none" stroke="#010101" stroke-width="0.25" stroke-miterlimit="10" x1="281.2" y1="428.15" x2="281.45" y2="428.15"/>
	</g>
</g>
<g>
	<line fill="#FFFFFF" x1="36.16" y1="457.97" x2="281.45" y2="457.97"/>
	<g>
		<line fill="none" stroke="#010101" stroke-width="0.25" stroke-miterlimit="10" x1="36.16" y1="457.97" x2="36.41" y2="457.97"/>
		
			<line fill="none" stroke="#010101" stroke-width="0.25" stroke-miterlimit="10" stroke-dasharray="0.5006,3.0035" x1="39.42" y1="457.97" x2="279.7" y2="457.97"/>
		<line fill="none" stroke="#010101" stroke-width="0.25" stroke-miterlimit="10" x1="281.2" y1="457.97" x2="281.45" y2="457.97"/>
	</g>
</g>
<g>
	<line fill="#FFFFFF" x1="36.16" y1="487.8" x2="281.45" y2="487.8"/>
	<g>
		<line fill="none" stroke="#010101" stroke-width="0.25" stroke-miterlimit="10" x1="36.16" y1="487.8" x2="36.41" y2="487.8"/>
		
			<line fill="none" stroke="#010101" stroke-width="0.25" stroke-miterlimit="10" stroke-dasharray="0.5006,3.0035" x1="39.42" y1="487.8" x2="279.7" y2="487.8"/>
		<line fill="none" stroke="#010101" stroke-width="0.25" stroke-miterlimit="10" x1="281.2" y1="487.8" x2="281.45" y2="487.8"/>
	</g>
</g>
<g>
	<line fill="#FFFFFF" x1="36.16" y1="517.62" x2="281.45" y2="517.62"/>
	<g>
		<line fill="none" stroke="#010101" stroke-width="0.25" stroke-miterlimit="10" x1="36.16" y1="517.62" x2="36.41" y2="517.62"/>
		
			<line fill="none" stroke="#010101" stroke-width="0.25" stroke-miterlimit="10" stroke-dasharray="0.5006,3.0035" x1="39.42" y1="517.62" x2="279.7" y2="517.62"/>
		<line fill="none" stroke="#010101" stroke-width="0.25" stroke-miterlimit="10" x1="281.2" y1="517.62" x2="281.45" y2="517.62"/>
	</g>
</g>
<g>
	<path fill="#7F7F7F" d="M249.04,250.07h0.7v9.39h-0.7V250.07z"/>
	<path fill="#7F7F7F" d="M252.62,250.07h0.66l6.48,8.17v-8.17h0.67v9.39h-0.52l-6.61-8.34v8.34h-0.67V250.07z"/>
	<path fill="#7F7F7F" d="M262.81,254.79v-0.03c0-2.54,1.84-4.86,4.64-4.86c1.53,0,2.5,0.46,3.43,1.23l-0.46,0.52
		c-0.74-0.64-1.6-1.13-3.02-1.13c-2.28,0-3.88,1.93-3.88,4.2v0.03c0,2.43,1.52,4.24,4.02,4.24c1.19,0,2.31-0.5,2.99-1.07v-2.7h-3.14
		v-0.64h3.81v3.62c-0.84,0.75-2.16,1.41-3.69,1.41C264.56,259.62,262.81,257.43,262.81,254.79z"/>
	<path fill="#7F7F7F" d="M273.74,250.07h3.94c1.15,0,2.08,0.36,2.64,0.93c0.44,0.44,0.71,1.07,0.71,1.74v0.03
		c0,1.57-1.17,2.47-2.75,2.68l3.1,4.01h-0.89l-2.99-3.89h-3.07v3.89h-0.7V250.07z M277.61,254.94c1.57,0,2.74-0.79,2.74-2.15v-0.03
		c0-1.26-0.99-2.05-2.7-2.05h-3.21v4.23H277.61z"/>
	<path fill="#7F7F7F" d="M283.45,250.07h6.68v0.64h-5.98v3.69h5.38v0.64h-5.38v3.77h6.05v0.64h-6.75V250.07z"/>
	<path fill="#7F7F7F" d="M292.44,250.07h3.12c2.95,0,4.99,2.03,4.99,4.67v0.03c0,2.64-2.04,4.69-4.99,4.69h-3.12V250.07z
		 M293.13,250.71v8.1h2.43c2.62,0,4.27-1.78,4.27-4.02v-0.03c0-2.23-1.65-4.05-4.27-4.05H293.13z"/>
	<path fill="#7F7F7F" d="M303.03,250.07h0.7v9.39h-0.7V250.07z"/>
	<path fill="#7F7F7F" d="M306.61,250.07h6.68v0.64h-5.98v3.69h5.38v0.64h-5.38v3.77h6.05v0.64h-6.75V250.07z"/>
	<path fill="#7F7F7F" d="M315.6,250.07h0.66l6.48,8.17v-8.17h0.67v9.39h-0.52l-6.61-8.34v8.34h-0.67V250.07z"/>
	<path fill="#7F7F7F" d="M328.8,250.71h-3.27v-0.64h7.24v0.64h-3.27v8.75h-0.7V250.71z"/>
	<path fill="#7F7F7F" d="M334.09,258.09l0.46-0.52c1.03,0.95,1.99,1.4,3.37,1.4c1.41,0,2.37-0.79,2.37-1.86v-0.03
		c0-0.99-0.52-1.57-2.66-2c-2.25-0.46-3.17-1.22-3.17-2.64v-0.03c0-1.39,1.27-2.47,3.02-2.47c1.37,0,2.27,0.38,3.22,1.14l-0.44,0.55
		c-0.88-0.76-1.77-1.06-2.8-1.06c-1.38,0-2.29,0.79-2.29,1.77v0.03c0,0.99,0.51,1.6,2.74,2.05c2.17,0.44,3.08,1.22,3.08,2.59v0.03
		c0,1.52-1.3,2.56-3.11,2.56C336.37,259.59,335.22,259.1,334.09,258.09z"/>
</g>
<g>
	<path fill="#7F7F7F" d="M271,136.75h3.94c1.15,0,2.08,0.36,2.64,0.93c0.44,0.44,0.71,1.07,0.71,1.74v0.03
		c0,1.57-1.17,2.47-2.75,2.68l3.1,4.01h-0.89l-2.99-3.89h-3.07v3.89H271V136.75z M274.86,141.61c1.57,0,2.74-0.79,2.74-2.15v-0.03
		c0-1.26-0.99-2.05-2.7-2.05h-3.21v4.23H274.86z"/>
	<path fill="#7F7F7F" d="M280.7,136.75h6.68v0.64h-5.98v3.69h5.38v0.64h-5.38v3.77h6.05v0.64h-6.75V136.75z"/>
	<path fill="#7F7F7F" d="M289.28,141.47v-0.03c0-2.66,1.99-4.86,4.69-4.86c1.68,0,2.68,0.62,3.65,1.5l-0.5,0.51
		c-0.82-0.79-1.76-1.38-3.17-1.38c-2.25,0-3.96,1.84-3.96,4.2v0.03c0,2.37,1.73,4.23,3.97,4.23c1.35,0,2.28-0.52,3.23-1.46
		l0.47,0.46c-0.99,0.98-2.07,1.64-3.73,1.64C291.26,146.3,289.28,144.16,289.28,141.47z"/>
	<path fill="#7F7F7F" d="M299.69,136.75h0.7v9.39h-0.7V136.75z"/>
	<path fill="#7F7F7F" d="M303.27,136.75h3.41c2.07,0,3.49,1.06,3.49,2.87v0.03c0,1.97-1.7,2.99-3.66,2.99h-2.53v3.5h-0.7V136.75z
		 M306.55,141.99c1.74,0,2.92-0.91,2.92-2.31v-0.03c0-1.49-1.15-2.27-2.84-2.27h-2.66v4.6H306.55z"/>
	<path fill="#7F7F7F" d="M312.24,136.75h6.68v0.64h-5.98v3.69h5.38v0.64h-5.38v3.77h6.05v0.64h-6.75V136.75z"/>
</g>
<g>
	<path fill="#7F7F7F" d="M418.25,101.99v-0.02c0-1.98,1.48-3.62,3.5-3.62c1.25,0,2,0.46,2.72,1.12l-0.37,0.38
		c-0.61-0.59-1.31-1.03-2.36-1.03c-1.68,0-2.95,1.37-2.95,3.13v0.02c0,1.77,1.29,3.15,2.96,3.15c1.01,0,1.7-0.39,2.41-1.09
		l0.35,0.34c-0.74,0.73-1.54,1.22-2.78,1.22C419.73,105.59,418.25,104,418.25,101.99z"/>
	<path fill="#7F7F7F" d="M425.42,101.99v-0.02c0-1.91,1.41-3.62,3.53-3.62s3.51,1.69,3.51,3.6v0.02c0,1.91-1.41,3.62-3.53,3.62
		C426.81,105.59,425.42,103.9,425.42,101.99z M431.92,101.99v-0.02c0-1.73-1.26-3.15-2.99-3.15c-1.73,0-2.97,1.4-2.97,3.13v0.02
		c0,1.73,1.26,3.15,2.99,3.15C430.68,105.12,431.92,103.72,431.92,101.99z"/>
	<path fill="#7F7F7F" d="M433.92,101.99v-0.02c0-1.91,1.41-3.62,3.53-3.62s3.51,1.69,3.51,3.6v0.02c0,1.91-1.41,3.62-3.53,3.62
		C435.31,105.59,433.92,103.9,433.92,101.99z M440.41,101.99v-0.02c0-1.73-1.26-3.15-2.99-3.15c-1.73,0-2.97,1.4-2.97,3.13v0.02
		c0,1.73,1.26,3.15,2.99,3.15C439.17,105.12,440.41,103.72,440.41,101.99z"/>
	<path fill="#7F7F7F" d="M442.72,98.48h0.52v4.6l4.46-4.6h0.71l-3.06,3.09l3.19,3.91h-0.68l-2.88-3.54l-1.74,1.76v1.78h-0.52V98.48z
		"/>
</g>
<g>
	<path fill="#6D6D6D" d="M41.62,277.8h8.55v1.84h-6.53v3.13h5.79v1.84h-5.79v4.67h-2.02V277.8z"/>
	<path fill="#6D6D6D" d="M51.78,283.57v-0.03c0-3.23,2.49-5.94,6.02-5.94s5.99,2.67,5.99,5.91v0.03c0,3.23-2.49,5.94-6.02,5.94
		C54.24,289.48,51.78,286.8,51.78,283.57z M61.67,283.57v-0.03c0-2.23-1.62-4.08-3.9-4.08c-2.28,0-3.87,1.82-3.87,4.05v0.03
		c0,2.23,1.62,4.07,3.9,4.07C60.08,287.61,61.67,285.8,61.67,283.57z"/>
	<path fill="#6D6D6D" d="M65.72,283.57v-0.03c0-3.23,2.49-5.94,6.02-5.94s5.99,2.67,5.99,5.91v0.03c0,3.23-2.49,5.94-6.02,5.94
		C68.18,289.48,65.72,286.8,65.72,283.57z M75.61,283.57v-0.03c0-2.23-1.62-4.08-3.9-4.08c-2.28,0-3.87,1.82-3.87,4.05v0.03
		c0,2.23,1.62,4.07,3.9,4.07C74.02,287.61,75.61,285.8,75.61,283.57z"/>
	<path fill="#6D6D6D" d="M80.17,277.8h4.28c3.61,0,6.1,2.48,6.1,5.71v0.03c0,3.23-2.49,5.74-6.1,5.74h-4.28V277.8z M82.19,279.64
		v7.81h2.26c2.41,0,3.99-1.62,3.99-3.87v-0.03c0-2.25-1.57-3.9-3.99-3.9H82.19z"/>
</g>
<g>
	<line fill="#FFFFFF" x1="310.53" y1="338.68" x2="555.82" y2="338.68"/>
	<g>
		
			<line fill="none" stroke="#010101" stroke-width="0.25" stroke-miterlimit="10" x1="310.53" y1="338.68" x2="310.78" y2="338.68"/>
		
			<line fill="none" stroke="#010101" stroke-width="0.25" stroke-miterlimit="10" stroke-dasharray="0.5006,3.0035" x1="313.78" y1="338.68" x2="554.07" y2="338.68"/>
		
			<line fill="none" stroke="#010101" stroke-width="0.25" stroke-miterlimit="10" x1="555.57" y1="338.68" x2="555.82" y2="338.68"/>
	</g>
</g>
<g>
	<line fill="#FFFFFF" x1="310.53" y1="87.29" x2="555.82" y2="87.29"/>
	<g>
		<line fill="none" stroke="#010101" stroke-width="0.25" stroke-miterlimit="10" x1="310.53" y1="87.29" x2="310.78" y2="87.29"/>
		
			<line fill="none" stroke="#010101" stroke-width="0.25" stroke-miterlimit="10" stroke-dasharray="0.5006,3.0035" x1="313.78" y1="87.29" x2="554.07" y2="87.29"/>
		<line fill="none" stroke="#010101" stroke-width="0.25" stroke-miterlimit="10" x1="555.57" y1="87.29" x2="555.82" y2="87.29"/>
	</g>
</g>
<g>
	<path fill="#7F7F7F" d="M388.45,45.28h2.54c1.54,0,2.6,0.79,2.6,2.14v0.02c0,1.47-1.27,2.23-2.73,2.23h-1.89v2.61h-0.52V45.28z
		 M390.89,49.19c1.3,0,2.18-0.68,2.18-1.72v-0.02c0-1.11-0.86-1.69-2.12-1.69h-1.98v3.43H390.89z"/>
	<path fill="#7F7F7F" d="M395.12,45.28h0.52v6.52h4.11v0.48h-4.63V45.28z"/>
	<path fill="#7F7F7F" d="M403.96,45.23h0.5l3.26,7.05h-0.57l-0.89-1.96h-4.13l-0.89,1.96h-0.54L403.96,45.23z M406.04,49.85
		l-1.84-4.05l-1.85,4.05H406.04z"/>
	<path fill="#7F7F7F" d="M408.49,48.8v-0.02c0-1.98,1.48-3.62,3.5-3.62c1.25,0,2,0.46,2.72,1.12l-0.37,0.38
		c-0.61-0.59-1.31-1.03-2.36-1.03c-1.68,0-2.95,1.37-2.95,3.13v0.02c0,1.77,1.29,3.15,2.96,3.15c1.01,0,1.7-0.39,2.41-1.09
		l0.35,0.34c-0.74,0.73-1.54,1.22-2.78,1.22C409.97,52.4,408.49,50.81,408.49,48.8z"/>
	<path fill="#7F7F7F" d="M416.17,45.28h4.98v0.48h-4.46v2.75h4.01v0.48h-4.01v2.81h4.51v0.48h-5.03V45.28z"/>
	<path fill="#7F7F7F" d="M428.52,45.23h0.5l3.26,7.05h-0.57l-0.89-1.96h-4.13l-0.89,1.96h-0.54L428.52,45.23z M430.6,49.85
		l-1.84-4.05l-1.85,4.05H430.6z"/>
	<path fill="#7F7F7F" d="M433.75,45.28h0.49l4.83,6.09v-6.09h0.5v7h-0.39l-4.93-6.22v6.22h-0.5V45.28z"/>
	<path fill="#7F7F7F" d="M441.64,45.28h2.33c2.2,0,3.72,1.51,3.72,3.48v0.02c0,1.97-1.52,3.5-3.72,3.5h-2.33V45.28z M442.17,45.76
		v6.04h1.81c1.95,0,3.18-1.33,3.18-3v-0.02c0-1.66-1.23-3.02-3.18-3.02H442.17z"/>
	<path fill="#7F7F7F" d="M452.45,45.28h2.33c2.2,0,3.72,1.51,3.72,3.48v0.02c0,1.97-1.52,3.5-3.72,3.5h-2.33V45.28z M452.97,45.76
		v6.04h1.81c1.95,0,3.18-1.33,3.18-3v-0.02c0-1.66-1.23-3.02-3.18-3.02H452.97z"/>
	<path fill="#7F7F7F" d="M462.48,45.23h0.5l3.26,7.05h-0.57l-0.89-1.96h-4.13l-0.89,1.96h-0.54L462.48,45.23z M464.55,49.85
		l-1.84-4.05l-1.85,4.05H464.55z"/>
	<path fill="#7F7F7F" d="M468.75,45.76h-2.44v-0.48h5.4v0.48h-2.44v6.52h-0.52V45.76z"/>
	<path fill="#7F7F7F" d="M473.28,45.28h4.98v0.48h-4.46v2.75h4.01v0.48h-4.01v2.81h4.51v0.48h-5.03V45.28z"/>
</g>
<g>
	<line fill="#FFFFFF" x1="310.53" y1="34.09" x2="555.82" y2="34.09"/>
	<g>
		<line fill="none" stroke="#010101" stroke-width="0.25" stroke-miterlimit="10" x1="310.53" y1="34.09" x2="310.78" y2="34.09"/>
		
			<line fill="none" stroke="#010101" stroke-width="0.25" stroke-miterlimit="10" stroke-dasharray="0.5006,3.0035" x1="313.78" y1="34.09" x2="554.07" y2="34.09"/>
		<line fill="none" stroke="#010101" stroke-width="0.25" stroke-miterlimit="10" x1="555.57" y1="34.09" x2="555.82" y2="34.09"/>
	</g>
</g>
<g>
	<line fill="#FFFFFF" x1="310.53" y1="368.51" x2="555.82" y2="368.51"/>
	<g>
		
			<line fill="none" stroke="#010101" stroke-width="0.25" stroke-miterlimit="10" x1="310.53" y1="368.51" x2="310.78" y2="368.51"/>
		
			<line fill="none" stroke="#010101" stroke-width="0.25" stroke-miterlimit="10" stroke-dasharray="0.5006,3.0035" x1="313.78" y1="368.51" x2="554.07" y2="368.51"/>
		
			<line fill="none" stroke="#010101" stroke-width="0.25" stroke-miterlimit="10" x1="555.57" y1="368.51" x2="555.82" y2="368.51"/>
	</g>
</g>
<g>
	<line fill="#FFFFFF" x1="310.53" y1="398.33" x2="555.82" y2="398.33"/>
	<g>
		
			<line fill="none" stroke="#010101" stroke-width="0.25" stroke-miterlimit="10" x1="310.53" y1="398.33" x2="310.78" y2="398.33"/>
		
			<line fill="none" stroke="#010101" stroke-width="0.25" stroke-miterlimit="10" stroke-dasharray="0.5006,3.0035" x1="313.78" y1="398.33" x2="554.07" y2="398.33"/>
		
			<line fill="none" stroke="#010101" stroke-width="0.25" stroke-miterlimit="10" x1="555.57" y1="398.33" x2="555.82" y2="398.33"/>
	</g>
</g>
<g>
	<line fill="#FFFFFF" x1="310.53" y1="428.15" x2="555.82" y2="428.15"/>
	<g>
		
			<line fill="none" stroke="#010101" stroke-width="0.25" stroke-miterlimit="10" x1="310.53" y1="428.15" x2="310.78" y2="428.15"/>
		
			<line fill="none" stroke="#010101" stroke-width="0.25" stroke-miterlimit="10" stroke-dasharray="0.5006,3.0035" x1="313.78" y1="428.15" x2="554.07" y2="428.15"/>
		
			<line fill="none" stroke="#010101" stroke-width="0.25" stroke-miterlimit="10" x1="555.57" y1="428.15" x2="555.82" y2="428.15"/>
	</g>
</g>
<g>
	<line fill="#FFFFFF" x1="310.53" y1="457.97" x2="555.82" y2="457.97"/>
	<g>
		
			<line fill="none" stroke="#010101" stroke-width="0.25" stroke-miterlimit="10" x1="310.53" y1="457.97" x2="310.78" y2="457.97"/>
		
			<line fill="none" stroke="#010101" stroke-width="0.25" stroke-miterlimit="10" stroke-dasharray="0.5006,3.0035" x1="313.78" y1="457.97" x2="554.07" y2="457.97"/>
		
			<line fill="none" stroke="#010101" stroke-width="0.25" stroke-miterlimit="10" x1="555.57" y1="457.97" x2="555.82" y2="457.97"/>
	</g>
</g>
<g>
	<line fill="#FFFFFF" x1="310.53" y1="487.8" x2="555.82" y2="487.8"/>
	<g>
		<line fill="none" stroke="#010101" stroke-width="0.25" stroke-miterlimit="10" x1="310.53" y1="487.8" x2="310.78" y2="487.8"/>
		
			<line fill="none" stroke="#010101" stroke-width="0.25" stroke-miterlimit="10" stroke-dasharray="0.5006,3.0035" x1="313.78" y1="487.8" x2="554.07" y2="487.8"/>
		<line fill="none" stroke="#010101" stroke-width="0.25" stroke-miterlimit="10" x1="555.57" y1="487.8" x2="555.82" y2="487.8"/>
	</g>
</g>
<g>
	<line fill="#FFFFFF" x1="310.53" y1="517.62" x2="555.82" y2="517.62"/>
	<g>
		
			<line fill="none" stroke="#010101" stroke-width="0.25" stroke-miterlimit="10" x1="310.53" y1="517.62" x2="310.78" y2="517.62"/>
		
			<line fill="none" stroke="#010101" stroke-width="0.25" stroke-miterlimit="10" stroke-dasharray="0.5006,3.0035" x1="313.78" y1="517.62" x2="554.07" y2="517.62"/>
		
			<line fill="none" stroke="#010101" stroke-width="0.25" stroke-miterlimit="10" x1="555.57" y1="517.62" x2="555.82" y2="517.62"/>
	</g>
</g>
<g>
	<line fill="#FFFFFF" x1="38.4" y1="636.91" x2="555.82" y2="636.91"/>
	<g>
		<line fill="none" stroke="#010101" stroke-width="0.25" stroke-miterlimit="10" x1="38.4" y1="636.91" x2="38.65" y2="636.91"/>
		
			<line fill="none" stroke="#010101" stroke-width="0.25" stroke-miterlimit="10" stroke-dasharray="0.4994,2.9966" x1="41.65" y1="636.91" x2="554.07" y2="636.91"/>
		
			<line fill="none" stroke="#010101" stroke-width="0.25" stroke-miterlimit="10" x1="555.57" y1="636.91" x2="555.82" y2="636.91"/>
	</g>
</g>
<g>
	<line fill="#FFFFFF" x1="38.4" y1="666.73" x2="555.82" y2="666.73"/>
	<g>
		<line fill="none" stroke="#010101" stroke-width="0.25" stroke-miterlimit="10" x1="38.4" y1="666.73" x2="38.65" y2="666.73"/>
		
			<line fill="none" stroke="#010101" stroke-width="0.25" stroke-miterlimit="10" stroke-dasharray="0.4994,2.9966" x1="41.65" y1="666.73" x2="554.07" y2="666.73"/>
		
			<line fill="none" stroke="#010101" stroke-width="0.25" stroke-miterlimit="10" x1="555.57" y1="666.73" x2="555.82" y2="666.73"/>
	</g>
</g>
<g>
	<line fill="#FFFFFF" x1="38.4" y1="696.55" x2="555.82" y2="696.55"/>
	<g>
		<line fill="none" stroke="#010101" stroke-width="0.25" stroke-miterlimit="10" x1="38.4" y1="696.55" x2="38.65" y2="696.55"/>
		
			<line fill="none" stroke="#010101" stroke-width="0.25" stroke-miterlimit="10" stroke-dasharray="0.4994,2.9966" x1="41.65" y1="696.55" x2="554.07" y2="696.55"/>
		
			<line fill="none" stroke="#010101" stroke-width="0.25" stroke-miterlimit="10" x1="555.57" y1="696.55" x2="555.82" y2="696.55"/>
	</g>
</g>
<g>
	<line fill="#FFFFFF" x1="38.4" y1="726.37" x2="555.82" y2="726.37"/>
	<g>
		<line fill="none" stroke="#010101" stroke-width="0.25" stroke-miterlimit="10" x1="38.4" y1="726.37" x2="38.65" y2="726.37"/>
		
			<line fill="none" stroke="#010101" stroke-width="0.25" stroke-miterlimit="10" stroke-dasharray="0.4994,2.9966" x1="41.65" y1="726.37" x2="554.07" y2="726.37"/>
		
			<line fill="none" stroke="#010101" stroke-width="0.25" stroke-miterlimit="10" x1="555.57" y1="726.37" x2="555.82" y2="726.37"/>
	</g>
</g>
<g>
	<line fill="#FFFFFF" x1="38.4" y1="756.2" x2="555.82" y2="756.2"/>
	<g>
		<line fill="none" stroke="#010101" stroke-width="0.25" stroke-miterlimit="10" x1="38.4" y1="756.2" x2="38.65" y2="756.2"/>
		
			<line fill="none" stroke="#010101" stroke-width="0.25" stroke-miterlimit="10" stroke-dasharray="0.4994,2.9966" x1="41.65" y1="756.2" x2="554.07" y2="756.2"/>
		<line fill="none" stroke="#010101" stroke-width="0.25" stroke-miterlimit="10" x1="555.57" y1="756.2" x2="555.82" y2="756.2"/>
	</g>
</g>
<g>
	<line fill="#FFFFFF" x1="38.4" y1="786.02" x2="555.82" y2="786.02"/>
	<g>
		<line fill="none" stroke="#010101" stroke-width="0.25" stroke-miterlimit="10" x1="38.4" y1="786.02" x2="38.65" y2="786.02"/>
		
			<line fill="none" stroke="#010101" stroke-width="0.25" stroke-miterlimit="10" stroke-dasharray="0.4994,2.9966" x1="41.65" y1="786.02" x2="554.07" y2="786.02"/>
		
			<line fill="none" stroke="#010101" stroke-width="0.25" stroke-miterlimit="10" x1="555.57" y1="786.02" x2="555.82" y2="786.02"/>
	</g>
</g>
<g>
	<line fill="#FFFFFF" x1="38.4" y1="815.84" x2="555.82" y2="815.84"/>
	<g>
		<line fill="none" stroke="#010101" stroke-width="0.25" stroke-miterlimit="10" x1="38.4" y1="815.84" x2="38.65" y2="815.84"/>
		
			<line fill="none" stroke="#010101" stroke-width="0.25" stroke-miterlimit="10" stroke-dasharray="0.4994,2.9966" x1="41.65" y1="815.84" x2="554.07" y2="815.84"/>
		
			<line fill="none" stroke="#010101" stroke-width="0.25" stroke-miterlimit="10" x1="555.57" y1="815.84" x2="555.82" y2="815.84"/>
	</g>
</g>
<g>
	<path fill="#6D6D6D" d="M509.83,277.8h4.28c3.61,0,6.1,2.48,6.1,5.71v0.03c0,3.23-2.49,5.74-6.1,5.74h-4.28V277.8z M511.85,279.64
		v7.81h2.26c2.41,0,3.99-1.62,3.99-3.87v-0.03c0-2.25-1.57-3.9-3.99-3.9H511.85z"/>
	<path fill="#6D6D6D" d="M525.92,277.72h1.87l5.05,11.56h-2.13l-1.17-2.77h-5.43l-1.18,2.77h-2.07L525.92,277.72z M528.81,284.72
		l-1.99-4.59l-1.97,4.59H528.81z"/>
	<path fill="#6D6D6D" d="M536.16,279.67h-3.64v-1.87h9.32v1.87h-3.64v9.61h-2.03V279.67z"/>
	<path fill="#6D6D6D" d="M546.56,277.72h1.87l5.05,11.56h-2.13l-1.17-2.77h-5.43l-1.18,2.77h-2.07L546.56,277.72z M549.44,284.72
		l-1.99-4.59l-1.97,4.59H549.44z"/>
</g>
<g>
	<path fill="#7F7F7F" d="M246.23,593.03h3.41c2.07,0,3.49,1.06,3.49,2.87v0.03c0,1.97-1.7,2.99-3.66,2.99h-2.54v3.5h-0.7V593.03z
		 M249.51,598.27c1.74,0,2.92-0.91,2.92-2.31v-0.03c0-1.49-1.15-2.27-2.84-2.27h-2.66v4.6H249.51z"/>
	<path fill="#7F7F7F" d="M255.2,593.03h3.94c1.15,0,2.08,0.36,2.64,0.93c0.44,0.44,0.71,1.07,0.71,1.74v0.03
		c0,1.57-1.17,2.47-2.75,2.68l3.1,4.01h-0.89l-2.99-3.89h-3.07v3.89h-0.7V593.03z M259.06,597.9c1.57,0,2.74-0.79,2.74-2.15v-0.03
		c0-1.26-0.99-2.05-2.7-2.05h-3.21v4.23H259.06z"/>
	<path fill="#7F7F7F" d="M264.9,593.03h6.68v0.64h-5.98v3.69h5.38V598h-5.38v3.77h6.05v0.64h-6.75V593.03z"/>
	<path fill="#7F7F7F" d="M273.89,593.03h3.41c2.07,0,3.49,1.06,3.49,2.87v0.03c0,1.97-1.7,2.99-3.66,2.99h-2.54v3.5h-0.7V593.03z
		 M277.17,598.27c1.74,0,2.92-0.91,2.92-2.31v-0.03c0-1.49-1.15-2.27-2.84-2.27h-2.66v4.6H277.17z"/>
	<path fill="#7F7F7F" d="M285.48,592.96h0.67l4.37,9.46h-0.76l-1.19-2.63h-5.54l-1.19,2.63h-0.72L285.48,592.96z M288.27,599.16
		l-2.47-5.43l-2.48,5.43H288.27z"/>
	<path fill="#7F7F7F" d="M292.52,593.03h3.94c1.15,0,2.08,0.36,2.64,0.93c0.44,0.44,0.71,1.07,0.71,1.74v0.03
		c0,1.57-1.17,2.47-2.75,2.68l3.1,4.01h-0.88l-2.99-3.89h-3.07v3.89h-0.7V593.03z M296.38,597.9c1.57,0,2.74-0.79,2.74-2.15v-0.03
		c0-1.26-0.99-2.05-2.7-2.05h-3.21v4.23H296.38z"/>
	<path fill="#7F7F7F" d="M305.79,592.96h0.67l4.37,9.46h-0.76l-1.19-2.63h-5.54l-1.19,2.63h-0.72L305.79,592.96z M308.58,599.16
		l-2.47-5.43l-2.48,5.43H308.58z"/>
	<path fill="#7F7F7F" d="M314.22,593.67h-3.27v-0.64h7.24v0.64h-3.27v8.75h-0.7V593.67z"/>
	<path fill="#7F7F7F" d="M320.41,593.03h0.7v9.39h-0.7V593.03z"/>
	<path fill="#7F7F7F" d="M323.57,597.75v-0.03c0-2.56,1.89-4.86,4.73-4.86s4.71,2.27,4.71,4.83v0.03c0,2.56-1.89,4.86-4.74,4.86
		C325.44,602.58,323.57,600.31,323.57,597.75z M332.29,597.75v-0.03c0-2.32-1.69-4.22-4.01-4.22s-3.98,1.88-3.98,4.2v0.03
		c0,2.32,1.69,4.22,4.01,4.22S332.29,600.07,332.29,597.75z"/>
	<path fill="#7F7F7F" d="M335.4,593.03h0.66l6.48,8.17v-8.17h0.67v9.39h-0.52l-6.61-8.34v8.34h-0.67V593.03z"/>
</g>
<g>
	<path d="M129.3,49.44h4.39c4.04,0,6.38,2.33,6.38,5.61v0.03c0,3.27-2.38,5.7-6.45,5.7h-4.33V49.44z M132.45,52.21v5.79h1.28
		c1.9,0,3.14-1.04,3.14-2.87v-0.03c0-1.81-1.25-2.88-3.14-2.88H132.45z"/>
	<path d="M144.82,49.35h3.03l4.83,11.42h-3.37l-0.81-2.04h-4.39l-0.81,2.04h-3.29L144.82,49.35z M147.58,56.29l-1.26-3.21
		l-1.28,3.21H147.58z"/>
	<path d="M155.09,52.19h-3.39v-2.75h9.93v2.75h-3.4v8.59h-3.14V52.19z"/>
	<path d="M165.47,49.35h3.03l4.83,11.42h-3.37l-0.81-2.04h-4.39l-0.81,2.04h-3.29L165.47,49.35z M168.23,56.29l-1.26-3.21
		l-1.28,3.21H168.23z"/>
	<path d="M178.54,55.14v-0.03c0-3.31,2.53-5.9,5.96-5.9c2.32,0,3.81,0.97,4.81,2.35l-2.37,1.83c-0.65-0.79-1.39-1.33-2.48-1.33
		c-1.59,0-2.71,1.36-2.71,3.01v0.03c0,1.7,1.12,3.03,2.71,3.03c1.18,0,1.88-0.55,2.56-1.38l2.37,1.69
		c-1.07,1.47-2.51,2.56-5.01,2.56C181.15,61.01,178.54,58.53,178.54,55.14z"/>
	<path d="M190.63,55.8v-6.37h3.18v6.3c0,1.64,0.83,2.41,2.09,2.41c1.28,0,2.11-0.75,2.11-2.33v-6.38h3.18v6.29
		c0,3.65-2.09,5.27-5.31,5.27C192.65,60.99,190.63,59.35,190.63,55.8z"/>
	<path d="M203.12,49.44h3.14v11.34h-3.14V49.44z"/>
	<path d="M207.47,59.09l1.75-2.09c1.13,0.89,2.37,1.36,3.68,1.36c0.86,0,1.31-0.29,1.31-0.78v-0.03c0-0.49-0.37-0.73-1.93-1.1
		c-2.41-0.55-4.28-1.23-4.28-3.55v-0.03c0-2.11,1.67-3.63,4.39-3.63c1.93,0,3.44,0.52,4.67,1.51l-1.57,2.22
		c-1.04-0.75-2.17-1.12-3.18-1.12c-0.76,0-1.13,0.31-1.13,0.73v0.03c0,0.52,0.39,0.75,1.98,1.1c2.59,0.57,4.21,1.41,4.21,3.53v0.03
		c0,2.32-1.83,3.69-4.59,3.69C210.78,60.97,208.88,60.34,207.47,59.09z"/>
	<path d="M218.97,49.44h3.14v11.34h-3.14V49.44z"/>
	<path d="M224.19,49.44h2.93l4.67,6v-6h3.11v11.34h-2.74l-4.86-6.22v6.22h-3.11V49.44z"/>
	<path d="M236.91,49.44h9.12v2.66h-6.01v1.73h5.44v2.48h-5.44v1.8h6.09v2.67h-9.2V49.44z"/>
	<path d="M129.11,68.87h0.94l3.57,10.1l3.32-10.13h0.65l3.32,10.13l3.56-10.1h0.88l-4.12,11.42h-0.68l-3.32-9.85l-3.32,9.85h-0.68
		L129.11,68.87z"/>
	<path d="M146.76,74.58v-0.03c0-3.09,2.28-5.87,5.72-5.87s5.69,2.74,5.69,5.83v0.03c0,3.1-2.29,5.87-5.72,5.87
		C149.02,80.41,146.76,77.67,146.76,74.58z M157.3,74.58v-0.03c0-2.8-2.04-5.1-4.85-5.1c-2.8,0-4.81,2.27-4.81,5.07v0.03
		c0,2.8,2.04,5.1,4.85,5.1C155.29,79.65,157.3,77.38,157.3,74.58z"/>
	<path d="M161.03,68.87h4.76c1.39,0,2.51,0.44,3.19,1.12c0.53,0.53,0.86,1.3,0.86,2.11v0.03c0,1.9-1.41,2.98-3.32,3.24l3.74,4.85
		h-1.07l-3.61-4.7h-3.71v4.7h-0.84V68.87z M165.7,74.76c1.9,0,3.31-0.96,3.31-2.59v-0.03c0-1.52-1.2-2.48-3.26-2.48h-3.87v5.1H165.7
		z"/>
	<path d="M172.75,68.87h0.84v7.45l7.23-7.45h1.15l-4.96,5.01l5.17,6.34h-1.1l-4.67-5.74l-2.82,2.85v2.88h-0.84V68.87z"/>
	<path d="M183.44,78.56l0.55-0.63c1.25,1.15,2.4,1.69,4.07,1.69c1.7,0,2.87-0.96,2.87-2.25v-0.03c0-1.2-0.63-1.9-3.21-2.41
		c-2.72-0.55-3.82-1.47-3.82-3.19v-0.03c0-1.69,1.54-2.98,3.65-2.98c1.65,0,2.74,0.45,3.89,1.38l-0.54,0.66
		c-1.07-0.92-2.14-1.28-3.39-1.28c-1.67,0-2.77,0.96-2.77,2.14v0.03c0,1.2,0.62,1.93,3.31,2.48c2.63,0.54,3.73,1.48,3.73,3.13v0.03
		c0,1.83-1.57,3.1-3.76,3.1C186.19,80.38,184.8,79.78,183.44,78.56z"/>
	<path d="M194.53,68.87h0.84v5.25h7.26v-5.25h0.84v11.34h-0.84V74.9h-7.26v5.31h-0.84V68.87z"/>
	<path d="M206.34,74.58v-0.03c0-3.09,2.28-5.87,5.72-5.87s5.69,2.74,5.69,5.83v0.03c0,3.1-2.29,5.87-5.72,5.87
		C208.59,80.41,206.34,77.67,206.34,74.58z M216.87,74.58v-0.03c0-2.8-2.04-5.1-4.85-5.1c-2.8,0-4.81,2.27-4.81,5.07v0.03
		c0,2.8,2.04,5.1,4.85,5.1C214.86,79.65,216.87,77.38,216.87,74.58z"/>
	<path d="M220.61,68.87h4.12c2.5,0,4.21,1.28,4.21,3.47v0.03c0,2.38-2.06,3.61-4.42,3.61h-3.06v4.23h-0.84V68.87z M224.56,75.21
		c2.11,0,3.53-1.1,3.53-2.79v-0.03c0-1.8-1.39-2.74-3.44-2.74h-3.21v5.56H224.56z"/>
</g>
<g>
	<g>
		<path d="M129.48,35.53v-0.03c0-3.09,2.28-5.87,5.72-5.87s5.69,2.74,5.69,5.83v0.03c0,3.1-2.29,5.87-5.72,5.87
			C131.73,41.36,129.48,38.62,129.48,35.53z M140.01,35.53v-0.03c0-2.8-2.04-5.1-4.85-5.1c-2.8,0-4.81,2.27-4.81,5.07v0.03
			c0,2.8,2.04,5.1,4.85,5.1C138,40.6,140.01,38.33,140.01,35.53z"/>
		<path d="M143.75,29.82h4.12c2.5,0,4.21,1.28,4.21,3.47v0.03c0,2.38-2.06,3.61-4.42,3.61h-3.06v4.23h-0.84V29.82z M147.7,36.16
			c2.11,0,3.53-1.1,3.53-2.79v-0.03c0-1.8-1.39-2.74-3.44-2.74h-3.21v5.56H147.7z"/>
		<path d="M154.57,29.82h8.07v0.78h-7.23v4.46h6.5v0.78h-6.5v4.55h7.31v0.78h-8.15V29.82z"/>
		<path d="M165.42,29.82h0.79l7.83,9.87v-9.87h0.81v11.34h-0.63l-7.99-10.08v10.08h-0.81V29.82z"/>
	</g>
</g>
<g>
</g>
<g>
</g>
<g>
</g>
<g>
</g>
<g>
</g>
<g>
</g>
</svg>
