<?xml version="1.0" encoding="utf-8"?>
<!-- Generator: Adobe Illustrator 19.2.1, SVG Export Plug-In . SVG Version: 6.00 Build 0)  -->
<!DOCTYPE svg PUBLIC "-//W3C//DTD SVG 1.1//EN" "http://www.w3.org/Graphics/SVG/1.1/DTD/svg11.dtd">
<svg version="1.1" id="Layer_1" xmlns="http://www.w3.org/2000/svg" xmlns:xlink="http://www.w3.org/1999/xlink" x="0px" y="0px"
	 viewBox="0 0 567.94 736.69" enable-background="new 0 0 567.94 736.69" xml:space="preserve">
<g>
	<g>
		<path fill="#FFFFFF" d="M122.56,519.53h29.58c27.18,0,43.01,15.72,43.01,37.77v0.22c0,22.05-16.05,38.42-43.45,38.42h-29.15
			V519.53z M143.73,538.2v38.97h8.62c12.77,0,21.18-6.99,21.18-19.32v-0.22c0-12.23-8.41-19.43-21.18-19.43H143.73z"/>
		<path fill="#FFFFFF" d="M227.14,518.98h20.41l32.53,76.96h-22.71l-5.46-13.75h-29.58l-5.46,13.75h-22.16L227.14,518.98z
			 M245.69,565.71l-8.51-21.61l-8.62,21.61H245.69z"/>
		<path fill="#FFFFFF" d="M296.35,538.09h-22.81v-18.56h66.92v18.56h-22.92v57.86h-21.18V538.09z"/>
		<path fill="#FFFFFF" d="M366.32,518.98h20.41l32.53,76.96h-22.71l-5.46-13.75h-29.58l-5.46,13.75H333.9L366.32,518.98z
			 M384.87,565.71l-8.51-21.61l-8.62,21.61H384.87z"/>
		<path fill="#FFFFFF" d="M55.37,688.95v-0.22c0-22.27,17.03-39.74,40.17-39.74c15.61,0,25.65,6.55,32.42,15.83l-15.94,12.33
			c-4.37-5.35-9.39-8.95-16.7-8.95c-10.7,0-18.23,9.17-18.23,20.3v0.22c0,11.46,7.53,20.41,18.23,20.41
			c7.97,0,12.66-3.71,17.25-9.28l15.94,11.35c-7.21,9.93-16.92,17.25-33.73,17.25C72.94,728.47,55.37,711.77,55.37,688.95z"/>
		<path fill="#FFFFFF" d="M136.8,693.43v-42.9h21.4v42.46c0,11.03,5.57,16.27,14.08,16.27c8.62,0,14.19-5.02,14.19-15.72v-43.01
			h21.4v42.35c0,24.56-14.08,35.48-35.8,35.48C150.45,728.36,136.8,717.33,136.8,693.43z"/>
		<path fill="#FFFFFF" d="M220.97,650.53h21.18v76.41h-21.18V650.53z"/>
		<path fill="#FFFFFF" d="M250.33,715.59l11.79-14.08c7.64,6,15.94,9.17,24.78,9.17c5.79,0,8.84-1.96,8.84-5.24v-0.22
			c0-3.28-2.51-4.91-12.99-7.42c-16.26-3.71-28.82-8.3-28.82-23.91v-0.22c0-14.19,11.24-24.45,29.58-24.45
			c12.99,0,23.14,3.49,31.44,10.15l-10.59,14.96c-6.99-5.02-14.63-7.53-21.4-7.53c-5.13,0-7.64,2.07-7.64,4.91v0.22
			c0,3.49,2.62,5.02,13.32,7.42c17.47,3.82,28.38,9.5,28.38,23.8v0.22c0,15.61-12.33,24.89-30.89,24.89
			C272.6,728.25,259.83,723.99,250.33,715.59z"/>
		<path fill="#FFFFFF" d="M327.84,650.53h21.18v76.41h-21.18V650.53z"/>
		<path fill="#FFFFFF" d="M362.99,650.53h19.76l31.44,40.39v-40.39h20.96v76.41h-18.45l-32.75-41.92v41.92h-20.96V650.53z"/>
		<path fill="#FFFFFF" d="M448.68,650.53h61.46v17.9h-40.5v11.68h36.68v16.7h-36.68v12.12h41.04v18.01h-62V650.53z"/>
	</g>
	<g>
		<polygon fill="#FFFFFF" points="357.2,303.05 561.61,207.27 533.66,147.63 501.27,162.81 508.47,177.69 505.55,179.09 
			498.33,164.18 479.25,173.13 490.77,197.19 486.5,199.24 474.95,175.14 455.98,184.03 462.93,198.39 460.01,199.78 453.04,185.41 
			433.38,194.62 440.39,209.08 437.46,210.48 430.45,195.99 410.79,205.21 417.85,219.78 414.93,221.18 407.85,206.58 388.2,215.79 
			395.31,230.48 392.38,231.87 385.26,217.17 366.27,226.07 378.07,250.69 373.79,252.73 361.98,228.08 343.01,236.97 
			350.22,251.87 347.3,253.28 340.07,238.35 320.41,247.56 327.68,262.58 324.76,263.97 317.47,248.93 297.81,258.15 303.77,270.43 
					"/>
		<polygon fill="#FFFFFF" points="294.88,259.52 289.8,261.9 298.65,267.3 		"/>
		<polygon fill="#FFFFFF" points="184.84,311.08 192.44,326.77 189.51,328.17 181.9,312.46 162.25,321.67 169.9,337.47 
			166.97,338.87 159.31,323.05 140.33,331.94 152.66,357.67 148.38,359.72 136.04,333.95 117.06,342.85 124.81,358.87 
			121.89,360.27 114.12,344.22 94.46,353.44 102.27,369.57 99.35,370.97 91.53,354.81 71.87,364.03 79.73,380.26 76.81,381.67 
			68.93,365.4 49.27,374.61 57.19,390.96 54.27,392.37 46.34,375.99 27.36,384.88 39.95,411.17 35.68,413.22 23.07,386.89 
			6.34,394.73 34.28,454.37 256.43,350.28 187.39,309.89 		"/>
		<path fill="#FFFFFF" d="M24.32,145.66c18.4,47.83,97.97,108.15,161.48,150.33c0.15,0.1,0.31,0.2,0.46,0.3
			c3.21,2.13,6.41,4.24,9.6,6.32c0.49,0.32,0.99,0.64,1.48,0.96c0.49,0.32,0.99,0.64,1.48,0.96c3.4,2.2,6.77,4.38,10.13,6.52
			c0.4,0.26,0.81,0.52,1.21,0.77c0.4,0.26,0.8,0.51,1.2,0.76c0.13,0.08,0.26,0.16,0.39,0.25c0.4,0.26,0.8,0.51,1.2,0.77
			c0.4,0.25,0.8,0.51,1.2,0.76c18.59,11.78,36.26,22.45,51.66,31.52c0.53,0.31,1.05,0.62,1.57,0.92c0.53,0.31,1.05,0.62,1.57,0.92
			c4.04,2.37,7.91,4.62,11.59,6.74c21.7,12.51,36.67,20.59,39.7,22.21c2.15-0.73,9.94-3.61,16.61-9.11
			c1.58-1.31,3.14-2.96,4.78-4.71c6.53-6.96,14.66-15.62,31.26-7.93c7.81,3.62,11.85,8.14,16.95,13.86
			c7.84,8.78,18.57,20.8,51.04,36.88c38.18,18.92,41.56,30.34,43.8,37.9c0.84,2.83,1.39,4.69,3.73,6.21
			c4.74,3.08,12.84,5.71,21.36,3.86c7.81-1.7,14.41-6.71,19.62-14.9c2.51-3.95,3.23-8.24,2.14-12.75
			c-3.65-15.02-25.81-28.09-26.03-28.22c-0.82-0.45-70.74-38.84-120.94-67.67l-13.21,22.72l-1.3-0.75l-1.3-0.75l13.2-22.71
			c-9.61-5.53-18.42-10.67-25.77-15.07l-0.55-0.33c-1.9-1.14-3.81-2.28-5.73-3.42c-0.11-0.07-0.23-0.14-0.34-0.2
			c-0.4-0.24-0.81-0.48-1.22-0.72c-0.52-0.31-1.04-0.62-1.56-0.93c-22.1-13.16-45.37-26.82-69.01-40.4
			c-0.53-0.3-1.06-0.61-1.59-0.91c-0.53-0.3-1.06-0.61-1.59-0.91c-4.98-2.85-9.98-5.7-14.98-8.54
			c-92.49-52.5-185.31-101.45-234.63-112.3"/>
	</g>
	<g>
		<path fill="#FFFFFF" d="M128.4,47.95v-0.22c0-20.85,15.39-39.52,38.53-39.52c23.14,0,38.32,18.45,38.32,39.3v0.22
			c0,20.85-15.39,39.52-38.53,39.52C143.57,87.25,128.4,68.81,128.4,47.95z M199.35,47.95v-0.22c0-18.88-13.75-34.39-32.64-34.39
			s-32.42,15.28-32.42,34.17v0.22c0,18.88,13.75,34.38,32.64,34.38S199.35,66.84,199.35,47.95z"/>
		<path fill="#FFFFFF" d="M224.57,9.53h27.73c16.81,0,28.38,8.62,28.38,23.36v0.22c0,16.05-13.86,24.34-29.8,24.34h-20.63v28.49
			h-5.68V9.53z M251.2,52.21c14.19,0,23.8-7.42,23.8-18.78v-0.22c0-12.12-9.39-18.45-23.14-18.45h-21.61v37.44H251.2z"/>
		<path fill="#FFFFFF" d="M297.49,9.53h54.36v5.24h-48.69v30.02h43.77v5.24h-43.77V80.7h49.23v5.24h-54.91V9.53z"/>
		<path fill="#FFFFFF" d="M370.63,9.53h5.35l52.72,66.48V9.53h5.46v76.41h-4.26l-53.82-67.9v67.9h-5.46V9.53z"/>
	</g>
</g>
<g>
</g>
<g>
</g>
<g>
</g>
<g>
</g>
<g>
</g>
<g>
</g>
<g>
</g>
<g>
</g>
<g>
</g>
<g>
</g>
<g>
</g>
<g>
</g>
<g>
</g>
<g>
</g>
<g>
</g>
</svg>
