<?xml version="1.0" encoding="utf-8"?>
<!-- Generator: Adobe Illustrator 19.2.1, SVG Export Plug-In . SVG Version: 6.00 Build 0)  -->
<!DOCTYPE svg PUBLIC "-//W3C//DTD SVG 1.1//EN" "http://www.w3.org/Graphics/SVG/1.1/DTD/svg11.dtd">
<svg version="1.1" id="Layer_1" xmlns="http://www.w3.org/2000/svg" xmlns:xlink="http://www.w3.org/1999/xlink" x="0px" y="0px"
	 viewBox="0 0 567.94 736.69" enable-background="new 0 0 567.94 736.69" xml:space="preserve">
<g>
	<path d="M122.88,520.4h29.58c27.18,0,43.01,15.72,43.01,37.77v0.22c0,22.05-16.05,38.42-43.45,38.42h-29.15V520.4z M144.06,539.07
		v38.97h8.62c12.77,0,21.18-6.99,21.18-19.32v-0.22c0-12.23-8.41-19.43-21.18-19.43H144.06z"/>
	<path d="M227.46,519.86h20.41l32.53,76.96H257.7l-5.46-13.75h-29.58l-5.46,13.75h-22.16L227.46,519.86z M246.02,566.58l-8.51-21.61
		l-8.62,21.61H246.02z"/>
	<path d="M296.67,538.96h-22.81V520.4h66.92v18.56h-22.92v57.86h-21.18V538.96z"/>
	<path d="M366.64,519.86h20.41l32.53,76.96h-22.71l-5.46-13.75h-29.58l-5.46,13.75h-22.16L366.64,519.86z M385.2,566.58l-8.51-21.61
		l-8.62,21.61H385.2z"/>
	<path d="M55.69,689.82v-0.22c0-22.27,17.03-39.74,40.17-39.74c15.61,0,25.65,6.55,32.42,15.83l-15.94,12.33
		c-4.37-5.35-9.39-8.95-16.7-8.95c-10.7,0-18.23,9.17-18.23,20.3v0.22c0,11.46,7.53,20.41,18.23,20.41c7.97,0,12.66-3.71,17.25-9.28
		l15.94,11.35c-7.21,9.93-16.92,17.25-33.73,17.25C73.27,729.34,55.69,712.64,55.69,689.82z"/>
	<path d="M137.13,694.3v-42.9h21.4v42.46c0,11.03,5.57,16.27,14.08,16.27c8.62,0,14.19-5.02,14.19-15.72V651.4h21.4v42.35
		c0,24.56-14.08,35.48-35.8,35.48C150.77,729.23,137.13,718.21,137.13,694.3z"/>
	<path d="M221.29,651.4h21.18v76.41h-21.18V651.4z"/>
	<path d="M250.66,716.46l11.79-14.08c7.64,6,15.94,9.17,24.78,9.17c5.79,0,8.84-1.96,8.84-5.24v-0.22c0-3.28-2.51-4.91-12.99-7.42
		c-16.26-3.71-28.82-8.3-28.82-23.91v-0.22c0-14.19,11.24-24.45,29.58-24.45c12.99,0,23.14,3.49,31.44,10.15l-10.59,14.96
		c-6.99-5.02-14.63-7.53-21.4-7.53c-5.13,0-7.64,2.07-7.64,4.91v0.22c0,3.49,2.62,5.02,13.32,7.42c17.47,3.82,28.38,9.5,28.38,23.8
		v0.22c0,15.61-12.33,24.89-30.89,24.89C272.92,729.12,260.15,724.87,250.66,716.46z"/>
	<path d="M328.16,651.4h21.18v76.41h-21.18V651.4z"/>
	<path d="M363.31,651.4h19.76l31.44,40.39V651.4h20.96v76.41h-18.45l-32.75-41.92v41.92h-20.96V651.4z"/>
	<path d="M449,651.4h61.46v17.9h-40.5v11.68h36.68v16.7h-36.68v12.12h41.04v18.01h-62V651.4z"/>
</g>
<g>
	<path d="M128.72,48.83v-0.22c0-20.85,15.39-39.52,38.53-39.52c23.14,0,38.32,18.45,38.32,39.3v0.22
		c0,20.85-15.39,39.52-38.53,39.52C143.89,88.13,128.72,69.68,128.72,48.83z M199.68,48.83v-0.22c0-18.88-13.75-34.39-32.64-34.39
		s-32.42,15.28-32.42,34.17v0.22c0,18.88,13.75,34.38,32.64,34.38S199.68,67.71,199.68,48.83z"/>
	<path d="M224.89,10.4h27.73c16.81,0,28.38,8.62,28.38,23.36v0.22c0,16.05-13.86,24.34-29.8,24.34h-20.63v28.49h-5.68V10.4z
		 M251.53,53.09c14.19,0,23.8-7.42,23.8-18.78v-0.22c0-12.12-9.39-18.45-23.14-18.45h-21.61v37.44H251.53z"/>
	<path d="M297.81,10.4h54.36v5.24h-48.69v30.02h43.77v5.24h-43.77v30.67h49.23v5.24h-54.91V10.4z"/>
	<path d="M370.95,10.4h5.35l52.72,66.48V10.4h5.46v76.41h-4.26l-53.82-67.9v67.9h-5.46V10.4z"/>
</g>
<g>
	<polygon points="357.53,303.93 561.93,208.15 533.98,148.5 501.59,163.68 508.8,178.56 505.88,179.97 498.66,165.06 479.57,174 
		491.09,198.06 486.82,200.11 475.27,176.02 456.3,184.91 463.25,199.26 460.33,200.66 453.36,186.28 433.71,195.49 440.71,209.96 
		437.79,211.35 430.77,196.87 411.11,206.08 418.17,220.65 415.25,222.05 408.18,207.46 388.52,216.67 395.63,231.35 392.71,232.75 
		385.58,218.04 366.6,226.94 378.39,251.56 374.11,253.61 362.3,228.95 343.33,237.84 350.55,252.75 347.62,254.15 340.39,239.22 
		320.73,248.43 328.01,263.45 325.08,264.85 317.8,249.81 298.14,259.02 304.09,271.3 	"/>
	<polygon points="295.2,260.4 290.12,262.78 298.97,268.18 	"/>
	<polygon points="185.17,311.96 192.76,327.65 189.84,329.04 182.23,313.34 162.57,322.55 170.22,338.34 167.29,339.74 
		159.63,323.92 140.65,332.82 152.98,358.55 148.71,360.6 136.36,334.83 117.38,343.72 125.14,359.74 122.21,361.14 114.45,345.1 
		94.79,354.31 102.6,370.44 99.67,371.84 91.85,355.69 72.19,364.9 80.05,381.13 77.13,382.54 69.26,366.28 49.6,375.49 
		57.51,391.84 54.59,393.24 46.66,376.86 27.68,385.76 40.28,412.04 36,414.09 23.39,387.77 6.66,395.61 34.61,455.25 
		256.76,351.15 187.71,310.77 	"/>
	<path d="M24.65,146.53c18.4,47.83,97.97,108.15,161.48,150.33c0.15,0.1,0.31,0.2,0.46,0.3c3.21,2.13,6.41,4.24,9.6,6.32
		c0.49,0.32,0.99,0.64,1.48,0.96c0.49,0.32,0.99,0.64,1.48,0.96c3.4,2.2,6.77,4.38,10.13,6.52c0.4,0.26,0.81,0.52,1.21,0.77
		c0.4,0.26,0.8,0.51,1.2,0.76c0.13,0.08,0.26,0.16,0.39,0.25c0.4,0.26,0.8,0.51,1.2,0.77c0.4,0.25,0.8,0.51,1.2,0.76
		c18.59,11.78,36.26,22.45,51.66,31.52c0.53,0.31,1.05,0.62,1.57,0.92c0.53,0.31,1.05,0.62,1.57,0.92
		c4.04,2.37,7.91,4.62,11.59,6.74c21.7,12.51,36.67,20.59,39.7,22.21c2.15-0.73,9.94-3.61,16.61-9.11c1.58-1.31,3.14-2.96,4.78-4.71
		c6.53-6.96,14.66-15.62,31.26-7.93c7.81,3.62,11.85,8.14,16.95,13.86c7.84,8.78,18.57,20.8,51.04,36.88
		c38.18,18.92,41.56,30.34,43.8,37.9c0.84,2.83,1.39,4.69,3.73,6.21c4.74,3.08,12.84,5.71,21.36,3.86
		c7.81-1.7,14.41-6.71,19.62-14.9c2.51-3.95,3.23-8.24,2.14-12.75c-3.65-15.02-25.81-28.09-26.03-28.22
		c-0.82-0.45-70.74-38.84-120.94-67.67l-13.21,22.72l-1.3-0.75l-1.3-0.75l13.2-22.71c-9.61-5.53-18.42-10.67-25.77-15.07l-0.55-0.33
		c-1.9-1.14-3.81-2.28-5.73-3.42c-0.11-0.07-0.23-0.14-0.34-0.2c-0.4-0.24-0.81-0.48-1.22-0.72c-0.52-0.31-1.04-0.62-1.56-0.93
		c-22.1-13.16-45.37-26.82-69.01-40.4c-0.53-0.3-1.06-0.61-1.59-0.91c-0.53-0.3-1.06-0.61-1.59-0.91c-4.98-2.85-9.98-5.7-14.98-8.54
		c-92.49-52.5-185.31-101.45-234.63-112.3"/>
</g>
<g>
</g>
<g>
</g>
<g>
</g>
<g>
</g>
<g>
</g>
<g>
</g>
<g>
</g>
<g>
</g>
<g>
</g>
<g>
</g>
<g>
</g>
<g>
</g>
<g>
</g>
<g>
</g>
<g>
</g>
</svg>
